<svg xmlns="http://www.w3.org/2000/svg" xmlns:xlink="http://www.w3.org/1999/xlink" version="1.1" x="0px" y="0px" viewBox="0 0 100 100" enable-background="new 0 0 100 100" xml:space="preserve"><path d="M43.446,37.625l1.806-5.561l1.806,5.561h2.289c-0.294,0.272-0.591,0.518-0.885,0.803c-2.439,2.363-4.849,4.293-7.188,5.883  l1.055-3.249L37.6,37.625H43.446z"></path><path d="M48.461,41.109c-15.691,15.205-30.186,12.877-32.008,12.51c0.208,1.944,0.585,3.836,1.109,5.668  c4.046,0.496,17,0.785,30.899-12.684c11.044-10.701,22.601-12.433,31.935-11.268c-0.992-2.054-2.189-3.987-3.561-5.783  C68.211,29.244,58.139,31.732,48.461,41.109z"></path><path d="M48.461,50.875C36.054,62.898,24.4,63.957,19.161,63.693c0.856,1.926,1.886,3.758,3.073,5.473  c6.013-0.359,15.857-2.748,26.228-12.797c12.279-11.898,25.201-12.72,34.984-10.785c-0.257-1.963-0.675-3.877-1.254-5.719  C72.572,38.248,60.225,39.475,48.461,50.875z"></path><path d="M48.461,60.64c-8.713,8.442-17.052,11.474-23.063,12.442c1.497,1.594,3.146,3.043,4.926,4.322  c5.289-1.658,11.607-4.943,18.137-11.271C60.688,54.284,73.551,53.421,83.32,55.326c0.275-1.734,0.422-3.514,0.422-5.326  c0-0.029-0.002-0.059-0.002-0.088C73.922,47.904,60.863,48.621,48.461,60.64z"></path><path d="M48.461,70.406c-4.838,4.688-9.56,7.703-13.835,9.629c1.839,0.941,3.774,1.723,5.79,2.32  c2.605-1.691,5.306-3.803,8.045-6.457c11.05-10.707,22.615-12.436,31.951-11.266c0.801-1.66,1.461-3.4,1.984-5.199  C72.748,57.762,60.309,58.926,48.461,70.406z"></path><path d="M48.461,80.17c-1.203,1.166-2.398,2.219-3.582,3.188c1.67,0.254,3.38,0.387,5.122,0.387c0.199,0,0.396-0.012,0.593-0.016  c7.81-6.738,15.787-9.234,22.979-9.596c1.69-1.652,3.21-3.479,4.524-5.451C69.202,68.078,58.615,70.332,48.461,80.17z"></path><path d="M21.138,46.621l4.73-3.436l4.729,3.436l-1.805-5.56l4.729-3.437h-5.847l-1.805-5.561l-1.806,5.561h-5.452  c-0.03,0.074-0.059,0.148-0.088,0.224l4.422,3.213L21.138,46.621z"></path><path d="M18.214,37.625l0.307,0.224c0.029-0.075,0.058-0.149,0.088-0.224H18.214z"></path><path d="M29.946,21.816l0.729,0.529c0.256-0.179,0.515-0.356,0.776-0.529H29.946z"></path><path d="M37.6,16.256l-0.884,2.72c0.515-0.221,1.036-0.429,1.564-0.625L37.6,16.256z"></path><path d="M32.87,30.812l4.729-3.436l4.729,3.436l-1.806-5.561l4.73-3.436h-5.848L38.28,18.35c-0.528,0.196-1.049,0.405-1.564,0.625  l-0.923,2.841h-4.342c-0.261,0.173-0.52,0.35-0.776,0.529l4.001,2.906L32.87,30.812z"></path><path d="M56.203,16.256l-0.178,0.548c0.127,0.022,0.252,0.043,0.378,0.067L56.203,16.256z"></path><path d="M48.551,21.816l4.729,3.436l-1.808,5.561l4.73-3.436l4.729,3.436l-1.808-5.561l4.728-3.436h-5.843l-1.605-4.946  c-0.126-0.024-0.251-0.045-0.378-0.067l-1.63,5.013H48.551z"></path><path d="M41.273,44.311c2.339-1.59,4.749-3.52,7.188-5.883c0.294-0.285,0.591-0.53,0.885-0.803h-2.289l-1.806-5.561l-1.806,5.561  H37.6l4.729,3.437L41.273,44.311z"></path><path d="M90.278,54.232L95,50l-4.722-4.233l3.737-5.123l-5.497-3.159l2.593-5.789l-6.037-1.945l1.331-6.201L80.099,22.9l0.013-6.341  l-6.305,0.676L72.5,11.029l-6.027,1.972l-2.568-5.799l-5.483,3.183l-3.716-5.138L50,9.5l-4.704-4.253l-3.717,5.138l-5.484-3.183  l-2.568,5.799L27.5,11.029l-1.306,6.206l-6.306-0.676l0.014,6.341l-6.308,0.649l1.331,6.201L8.89,31.695l2.592,5.789l-5.499,3.159  l3.739,5.123L5,50l4.722,4.232l-3.739,5.123l5.499,3.16L8.89,68.303l6.035,1.949l-1.331,6.199l6.308,0.648l-0.014,6.344l6.306-0.678  l1.306,6.205l6.027-1.973l2.568,5.799l5.484-3.182l3.717,5.139L50,90.5l4.705,4.254l3.716-5.139l5.483,3.182l2.568-5.799  l6.027,1.973l1.307-6.205l6.305,0.678L80.099,77.1l6.307-0.648l-1.331-6.199l6.037-1.949l-2.593-5.787l5.497-3.16L90.278,54.232z   M50,87.998c-20.986,0-37.999-17.012-37.999-37.998S29.014,12.001,50,12.001c20.986,0,37.999,17.013,37.999,37.999  S70.986,87.998,50,87.998z"></path></svg>